<svg width="20" height="20" viewBox="0 0 20 20" fill="none" xmlns="http://www.w3.org/2000/svg">
<path d="M16.4168 2.66659H14.5835V1.74992C14.5835 1.5068 14.4869 1.27365 14.315 1.10174C14.1431 0.929829 13.9099 0.833252 13.6668 0.833252C13.4237 0.833252 13.1906 0.929829 13.0186 1.10174C12.8467 1.27365 12.7502 1.5068 12.7502 1.74992V2.66659H7.25016V1.74992C7.25016 1.5068 7.15359 1.27365 6.98168 1.10174C6.80977 0.929829 6.57661 0.833252 6.3335 0.833252C6.09038 0.833252 5.85722 0.929829 5.68531 1.10174C5.51341 1.27365 5.41683 1.5068 5.41683 1.74992V2.66659H3.5835C2.85415 2.66659 2.15468 2.95632 1.63895 3.47204C1.12323 3.98777 0.833496 4.68724 0.833496 5.41658V16.4166C0.833496 17.1459 1.12323 17.8454 1.63895 18.3611C2.15468 18.8769 2.85415 19.1666 3.5835 19.1666H16.4168C17.1462 19.1666 17.8456 18.8769 18.3614 18.3611C18.8771 17.8454 19.1668 17.1459 19.1668 16.4166V5.41658C19.1668 4.68724 18.8771 3.98777 18.3614 3.47204C17.8456 2.95632 17.1462 2.66659 16.4168 2.66659ZM17.3335 16.4166C17.3335 16.6597 17.2369 16.8929 17.065 17.0648C16.8931 17.2367 16.6599 17.3333 16.4168 17.3333H3.5835C3.34038 17.3333 3.10722 17.2367 2.93531 17.0648C2.76341 16.8929 2.66683 16.6597 2.66683 16.4166V9.99992H17.3335V16.4166ZM17.3335 8.16658H2.66683V5.41658C2.66683 5.17347 2.76341 4.94031 2.93531 4.7684C3.10722 4.5965 3.34038 4.49992 3.5835 4.49992H5.41683V5.41658C5.41683 5.6597 5.51341 5.89286 5.68531 6.06477C5.85722 6.23667 6.09038 6.33325 6.3335 6.33325C6.57661 6.33325 6.80977 6.23667 6.98168 6.06477C7.15359 5.89286 7.25016 5.6597 7.25016 5.41658V4.49992H12.7502V5.41658C12.7502 5.6597 12.8467 5.89286 13.0186 6.06477C13.1906 6.23667 13.4237 6.33325 13.6668 6.33325C13.9099 6.33325 14.1431 6.23667 14.315 6.06477C14.4869 5.89286 14.5835 5.6597 14.5835 5.41658V4.49992H16.4168C16.6599 4.49992 16.8931 4.5965 17.065 4.7684C17.2369 4.94031 17.3335 5.17347 17.3335 5.41658V8.16658Z" fill="black"/>
</svg>
