<svg width="28" height="28" viewBox="0 0 28 28" fill="none" xmlns="http://www.w3.org/2000/svg">
<path d="M18.6666 22.1668C17.7383 22.1668 16.8481 21.7981 16.1917 21.1417C15.5353 20.4853 15.1666 19.5951 15.1666 18.6668C15.1666 17.7386 15.5353 16.8483 16.1917 16.192C16.8481 15.5356 17.7383 15.1668 18.6666 15.1668C19.5948 15.1668 20.4851 15.5356 21.1415 16.192C21.7978 16.8483 22.1666 17.7386 22.1666 18.6668C22.1666 19.5951 21.7978 20.4853 21.1415 21.1417C20.4851 21.7981 19.5948 22.1668 18.6666 22.1668ZM9.33325 22.1668C8.40499 22.1668 7.51476 21.7981 6.85838 21.1417C6.202 20.4853 5.83325 19.5951 5.83325 18.6668C5.83325 17.7386 6.202 16.8483 6.85838 16.192C7.51476 15.5356 8.40499 15.1668 9.33325 15.1668C10.2615 15.1668 11.1517 15.5356 11.8081 16.192C12.4645 16.8483 12.8333 17.7386 12.8333 18.6668C12.8333 19.5951 12.4645 20.4853 11.8081 21.1417C11.1517 21.7981 10.2615 22.1668 9.33325 22.1668ZM18.6666 12.8335C17.7383 12.8335 16.8481 12.4647 16.1917 11.8084C15.5353 11.152 15.1666 10.2618 15.1666 9.3335C15.1666 8.40524 15.5353 7.515 16.1917 6.85862C16.8481 6.20225 17.7383 5.8335 18.6666 5.8335C19.5948 5.8335 20.4851 6.20225 21.1415 6.85862C21.7978 7.515 22.1666 8.40524 22.1666 9.3335C22.1666 10.2618 21.7978 11.152 21.1415 11.8084C20.4851 12.4647 19.5948 12.8335 18.6666 12.8335ZM9.33325 12.8335C8.40499 12.8335 7.51476 12.4647 6.85838 11.8084C6.202 11.152 5.83325 10.2618 5.83325 9.3335C5.83325 8.40524 6.202 7.515 6.85838 6.85862C7.51476 6.20225 8.40499 5.8335 9.33325 5.8335C10.2615 5.8335 11.1517 6.20225 11.8081 6.85862C12.4645 7.515 12.8333 8.40524 12.8333 9.3335C12.8333 10.2618 12.4645 11.152 11.8081 11.8084C11.1517 12.4647 10.2615 12.8335 9.33325 12.8335Z" fill="black"/>
</svg>
