<svg width="20" height="20" viewBox="0 0 20 20" fill="none" xmlns="http://www.w3.org/2000/svg">
<g clip-path="url(#clip0_497_852)">
<path fill-rule="evenodd" clip-rule="evenodd" d="M0.833374 2.36516C0.833374 1.95894 0.994746 1.56936 1.28199 1.28211C1.56923 0.99487 1.95882 0.833498 2.36504 0.833498H17.6334C17.8347 0.833169 18.0341 0.872551 18.2202 0.949387C18.4062 1.02622 18.5753 1.13901 18.7177 1.28128C18.8602 1.42355 18.9731 1.59252 19.0502 1.77851C19.1272 1.9645 19.1668 2.16385 19.1667 2.36516V17.6335C19.1669 17.8349 19.1274 18.0343 19.0505 18.2203C18.9736 18.4064 18.8607 18.5755 18.7184 18.7179C18.576 18.8603 18.407 18.9733 18.221 19.0503C18.035 19.1273 17.8356 19.1669 17.6342 19.1668H2.36504C2.16383 19.1668 1.96459 19.1272 1.7787 19.0502C1.59282 18.9731 1.42393 18.8602 1.28169 18.7179C1.13945 18.5756 1.02665 18.4067 0.949726 18.2207C0.872802 18.0348 0.833265 17.8355 0.833374 17.6343V2.36516ZM8.09004 7.8235H10.5725V9.07017C10.9309 8.3535 11.8475 7.7085 13.225 7.7085C15.8659 7.7085 16.4917 9.136 16.4917 11.7552V16.6068H13.8192V12.3518C13.8192 10.8602 13.4609 10.0185 12.5509 10.0185C11.2884 10.0185 10.7634 10.926 10.7634 12.3518V16.6068H8.09004V7.8235ZM3.50671 16.4927H6.18004V7.7085H3.50671V16.4918V16.4927ZM6.56254 4.8435C6.56758 5.07239 6.52685 5.29999 6.44274 5.51293C6.35863 5.72587 6.23283 5.91986 6.07273 6.08353C5.91263 6.24719 5.72146 6.37723 5.51042 6.466C5.29938 6.55478 5.07274 6.60051 4.84379 6.60051C4.61484 6.60051 4.3882 6.55478 4.17716 6.466C3.96613 6.37723 3.77495 6.24719 3.61485 6.08353C3.45475 5.91986 3.32895 5.72587 3.24484 5.51293C3.16073 5.29999 3.12 5.07239 3.12504 4.8435C3.13493 4.39421 3.32036 3.96666 3.64161 3.6524C3.96286 3.33815 4.39439 3.16218 4.84379 3.16218C5.29319 3.16218 5.72472 3.33815 6.04597 3.6524C6.36722 3.96666 6.55265 4.39421 6.56254 4.8435Z" fill="black"/>
</g>
<defs>
<clipPath id="clip0_497_852">
<rect width="20" height="20" fill="white"/>
</clipPath>
</defs>
</svg>
