<svg width="24" height="24" viewBox="0 0 24 24" fill="none" xmlns="http://www.w3.org/2000/svg">
<path d="M22.6086 18.4248L17.5274 13.8048C17.2872 13.5865 16.9715 13.4701 16.6471 13.4801C16.3227 13.4901 16.0149 13.6258 15.7886 13.8586L12.7974 16.9348C12.0774 16.7973 10.6299 16.3461 9.13986 14.8598C7.64986 13.3686 7.19861 11.9173 7.06486 11.2023L10.1386 8.20981C10.3716 7.98372 10.5075 7.67584 10.5176 7.35132C10.5276 7.0268 10.411 6.71111 10.1924 6.47106L5.57361 1.39106C5.35492 1.15026 5.05096 1.00419 4.72631 0.983885C4.40165 0.963579 4.08186 1.07063 3.83486 1.28231L1.12236 3.60856C0.906253 3.82545 0.777264 4.11412 0.759864 4.41981C0.741114 4.73231 0.383615 12.1348 6.12361 17.8773C11.1311 22.8836 17.4036 23.2498 19.1311 23.2498C19.3836 23.2498 19.5386 23.2423 19.5799 23.2398C19.8855 23.2227 20.174 23.0931 20.3899 22.8761L22.7149 20.1623C22.9274 19.9161 23.0352 19.5966 23.0154 19.2719C22.9955 18.9473 22.8495 18.6433 22.6086 18.4248Z" fill="black"/>
</svg>
